<svg width="64" height="64" viewBox="0 0 64 64" fill="none" xmlns="http://www.w3.org/2000/svg">
    <path d="M42.6667 56H21.3333C20.6261 56 19.9478 55.7191 19.4477 55.219C18.9476 54.7189 18.6667 54.0406 18.6667 53.3333V32.1867L15.2 34.9867C14.16 36 12.48 36 11.44 34.9867L3.89333 27.44C2.85333 26.4 2.85333 24.72 3.89333 23.68L19.5733 8H24C24 10.9333 27.5733 13.3333 32 13.3333C36.4267 13.3333 40 10.9333 40 8H44.4267L60.1067 23.68C61.1467 24.72 61.1467 26.4 60.1067 27.44L52.56 34.9867C51.52 36 49.84 36 48.8 34.9867L45.3333 32.1867V53.3333C45.3333 54.0406 45.0524 54.7189 44.5523 55.219C44.0522 55.7191 43.3739 56 42.6667 56ZM54.4533 25.5467L42.96 14.08C42.1333 15.0133 41.1467 15.84 40 16.5333C37.76 17.8667 35.0133 18.6667 32 18.6667C27.4667 18.6667 23.44 16.8533 21.04 14.08L9.54666 25.5467L13.3333 29.3333L21.3333 24H24V50.6667H40V24H42.6667L50.6667 29.3333L54.4533 25.5467Z" fill="#204FA1"/>
</svg>
