<svg width="229" height="105" viewBox="0 0 229 105" fill="none" xmlns="http://www.w3.org/2000/svg">
    <path d="M17.85 57.31C17.85 60.2 19.9183 61.645 24.055 61.645C24.055 63.6283 23.4033 65.4133 22.1 67H4.42C3.17333 65.47 2.55 63.685 2.55 61.645C4.53333 61.645 6.00667 61.305 6.97 60.625C7.93333 59.945 8.415 58.84 8.415 57.31V17.36C8.415 14.47 6.34667 13.025 2.21 13.025C2.21 12.0617 2.38 11.0983 2.72 10.135C3.06 9.17166 3.51333 8.35 4.08 7.67H15.895C17.5383 7.67 19.1817 8.32167 20.825 9.625C22.4683 10.8717 24.0267 12.6283 25.5 14.895L44.795 45.41V17.36C44.795 15.83 44.285 14.725 43.265 14.045C42.245 13.365 40.7433 13.025 38.76 13.025C38.76 12.005 38.93 11.0417 39.27 10.135C39.61 9.17166 40.0917 8.35 40.715 7.67H58.82C59.4433 8.35 59.925 9.17166 60.265 10.135C60.605 11.0983 60.775 12.0617 60.775 13.025C58.8483 13.025 57.375 13.365 56.355 14.045C55.3917 14.725 54.91 15.83 54.91 17.36V67.51H51.51C48.7333 67.51 46.6933 67.17 45.39 66.49C44.0867 65.7533 42.84 64.5067 41.65 62.75L17.85 26.625V57.31ZM84.2888 68.105C78.0555 68.105 73.0688 66.15 69.3288 62.24C65.5888 58.2733 63.7188 52.635 63.7188 45.325C63.7188 40.1117 64.5971 35.6633 66.3538 31.98C68.1671 28.2967 70.6888 25.52 73.9188 23.65C77.1488 21.78 80.8888 20.845 85.1388 20.845C89.2188 20.845 92.7888 21.7517 95.8488 23.565C98.9655 25.3217 101.374 27.9283 103.074 31.385C104.83 34.8417 105.709 39.035 105.709 43.965C105.709 49.1217 104.802 53.5133 102.989 57.14C101.232 60.7667 98.7388 63.515 95.5088 65.385C92.2788 67.1983 88.5388 68.105 84.2888 68.105ZM84.9688 61.985C86.9521 61.985 88.4255 60.8517 89.3888 58.585C90.3521 56.3183 90.8338 52.125 90.8338 46.005C90.8338 40.8483 90.5788 36.8817 90.0688 34.105C89.5588 31.3283 88.8505 29.43 87.9438 28.41C87.0371 27.39 85.8755 26.88 84.4588 26.88C82.4755 26.88 80.9738 28.0133 79.9538 30.28C78.9905 32.5467 78.5088 36.7967 78.5088 43.03C78.5088 48.13 78.7638 52.0683 79.2738 54.845C79.7838 57.565 80.4921 59.435 81.3988 60.455C82.3621 61.475 83.5521 61.985 84.9688 61.985ZM127.545 29.515V53.485C127.545 55.185 127.885 56.375 128.565 57.055C129.245 57.6783 130.208 57.99 131.455 57.99C132.532 57.99 133.665 57.7067 134.855 57.14C136.045 56.5733 136.98 55.865 137.66 55.015C138.227 55.4683 138.623 56.1483 138.85 57.055C139.133 57.9617 139.275 58.7833 139.275 59.52C139.275 60.8233 138.822 62.0983 137.915 63.345C137.008 64.5917 135.648 65.6117 133.835 66.405C132.022 67.1983 129.84 67.595 127.29 67.595C123.323 67.595 120.122 66.4617 117.685 64.195C115.305 61.9283 114.115 58.16 114.115 52.89V29.515H108.76V24.33C110.233 24.1033 111.65 23.1683 113.01 21.525C114.427 19.825 115.617 17.7283 116.58 15.235C117.6 12.685 118.252 10.1633 118.535 7.67C119.555 7.5 120.49 7.415 121.34 7.415C123.38 7.415 124.882 8.01 125.845 9.2C126.865 10.3333 127.375 11.6083 127.375 13.025V21.95H137.235C137.235 23.65 137.15 25.1233 136.98 26.37C136.81 27.56 136.442 28.6083 135.875 29.515H127.545ZM175.821 56.205C176.275 56.715 176.643 57.395 176.926 58.245C177.266 59.095 177.436 59.8317 177.436 60.455C177.436 61.7017 176.785 62.92 175.481 64.11C174.178 65.3 172.421 66.2917 170.211 67.085C168.058 67.8783 165.706 68.275 163.156 68.275C159.02 68.275 155.365 67.34 152.191 65.47C149.018 63.6 146.553 60.9083 144.796 57.395C143.04 53.8817 142.161 49.7167 142.161 44.9C142.161 39.97 143.096 35.6917 144.966 32.065C146.893 28.4383 149.528 25.6617 152.871 23.735C156.271 21.8083 160.068 20.845 164.261 20.845C168.455 20.845 171.713 21.865 174.036 23.905C176.416 25.8883 177.606 28.4383 177.606 31.555C177.606 34.2183 176.926 36.315 175.566 37.845C174.206 39.3183 172.45 40.055 170.296 40.055C168.54 40.055 167.066 39.4033 165.876 38.1C164.686 36.7967 164.091 35.21 164.091 33.34C164.091 32.0933 164.318 31.045 164.771 30.195C165.225 29.345 165.848 28.58 166.641 27.9C165.735 27.39 164.913 27.135 164.176 27.135C162.25 27.135 160.55 28.2967 159.076 30.62C157.603 32.8867 156.866 36.655 156.866 41.925C156.866 47.9317 157.745 52.2667 159.501 54.93C161.258 57.5367 163.836 58.84 167.236 58.84C168.823 58.84 170.381 58.6133 171.911 58.16C173.498 57.7067 174.801 57.055 175.821 56.205ZM228.769 64.705C226.729 66.575 223.612 67.51 219.419 67.51C213.696 67.51 210.834 65.725 210.834 62.155V34.785C210.834 32.9717 210.324 31.5833 209.304 30.62C208.341 29.6 207.009 29.09 205.309 29.09C204.176 29.09 202.986 29.4583 201.739 30.195C200.549 30.9317 199.671 31.8667 199.104 33V57.82C199.104 59.4633 199.444 60.6533 200.124 61.39C200.861 62.07 202.079 62.41 203.779 62.41C203.779 64.1667 203.127 65.6967 201.824 67H183.039C181.736 65.6967 181.084 64.1667 181.084 62.41C182.784 62.41 183.974 62.07 184.654 61.39C185.391 60.6533 185.759 59.4633 185.759 57.82V11.75C185.759 10.3333 185.362 9.285 184.569 8.605C183.776 7.925 182.274 7.58499 180.064 7.58499V4.1C182.104 3.02333 184.682 2.08833 187.799 1.29499C190.972 0.444996 193.522 0.019996 195.449 0.019996C196.752 0.019996 197.687 0.331664 198.254 0.954999C198.821 1.52167 199.104 2.51333 199.104 3.93V20.675L198.934 27.475C200.464 25.4917 202.391 23.8767 204.714 22.63C207.094 21.3833 209.701 20.76 212.534 20.76C216.501 20.76 219.504 21.8367 221.544 23.99C223.584 26.0867 224.604 29.2033 224.604 33.34V57.14C224.604 58.5567 224.944 59.69 225.624 60.54C226.361 61.39 227.381 61.9567 228.684 62.24L228.769 64.705Z" fill="#3FC1C9"/>
    <path d="M0.922852 94.3564L3.53027 93.9463C3.67676 94.9912 4.08203 95.792 4.74609 96.3486C5.41992 96.9053 6.35742 97.1836 7.55859 97.1836C8.76953 97.1836 9.66797 96.9395 10.2539 96.4512C10.8398 95.9531 11.1328 95.3721 11.1328 94.708C11.1328 94.1123 10.874 93.6436 10.3564 93.3018C9.99512 93.0674 9.09668 92.7695 7.66113 92.4082C5.72754 91.9199 4.38477 91.5 3.63281 91.1484C2.89062 90.7871 2.32422 90.2939 1.93359 89.6689C1.55273 89.0342 1.3623 88.3359 1.3623 87.5742C1.3623 86.8809 1.51855 86.2412 1.83105 85.6553C2.15332 85.0596 2.58789 84.5664 3.13477 84.1758C3.54492 83.873 4.10156 83.6191 4.80469 83.4141C5.51758 83.1992 6.2793 83.0918 7.08984 83.0918C8.31055 83.0918 9.37988 83.2676 10.2979 83.6191C11.2256 83.9707 11.9092 84.4492 12.3486 85.0547C12.7881 85.6504 13.0908 86.4512 13.2568 87.457L10.6787 87.8086C10.5615 87.0078 10.2197 86.3828 9.65332 85.9336C9.09668 85.4844 8.30566 85.2598 7.28027 85.2598C6.06934 85.2598 5.20508 85.46 4.6875 85.8604C4.16992 86.2607 3.91113 86.7295 3.91113 87.2666C3.91113 87.6084 4.01855 87.916 4.2334 88.1895C4.44824 88.4727 4.78516 88.707 5.24414 88.8926C5.50781 88.9902 6.28418 89.2148 7.57324 89.5664C9.43848 90.0645 10.7373 90.4746 11.4697 90.7969C12.2119 91.1094 12.793 91.5684 13.2129 92.1738C13.6328 92.7793 13.8428 93.5312 13.8428 94.4297C13.8428 95.3086 13.584 96.1387 13.0664 96.9199C12.5586 97.6914 11.8213 98.292 10.8545 98.7217C9.8877 99.1416 8.79395 99.3516 7.57324 99.3516C5.55176 99.3516 4.00879 98.9316 2.94434 98.0918C1.88965 97.252 1.21582 96.0068 0.922852 94.3564ZM16.9775 99V77.5254H19.6143V85.2305C20.8447 83.8047 22.3975 83.0918 24.2725 83.0918C25.4248 83.0918 26.4258 83.3213 27.2754 83.7803C28.125 84.2295 28.7305 84.8545 29.0918 85.6553C29.4629 86.4561 29.6484 87.6182 29.6484 89.1416V99H27.0117V89.1416C27.0117 87.8232 26.7236 86.8662 26.1475 86.2705C25.5811 85.665 24.7754 85.3623 23.7305 85.3623C22.9492 85.3623 22.2119 85.5674 21.5186 85.9775C20.835 86.3779 20.3467 86.9248 20.0537 87.6182C19.7607 88.3115 19.6143 89.2686 19.6143 90.4893V99H16.9775ZM32.6953 91.2217C32.6953 88.3408 33.4961 86.207 35.0977 84.8203C36.4355 83.668 38.0664 83.0918 39.9902 83.0918C42.1289 83.0918 43.877 83.7949 45.2344 85.2012C46.5918 86.5977 47.2705 88.5312 47.2705 91.002C47.2705 93.0039 46.9678 94.5811 46.3623 95.7334C45.7666 96.876 44.8926 97.7646 43.7402 98.3994C42.5977 99.0342 41.3477 99.3516 39.9902 99.3516C37.8125 99.3516 36.0498 98.6533 34.7021 97.2568C33.3643 95.8604 32.6953 93.8486 32.6953 91.2217ZM35.4053 91.2217C35.4053 93.2139 35.8398 94.708 36.709 95.7041C37.5781 96.6904 38.6719 97.1836 39.9902 97.1836C41.2988 97.1836 42.3877 96.6855 43.2568 95.6895C44.126 94.6934 44.5605 93.1748 44.5605 91.1338C44.5605 89.21 44.1211 87.7549 43.2422 86.7686C42.373 85.7725 41.2891 85.2744 39.9902 85.2744C38.6719 85.2744 37.5781 85.7676 36.709 86.7539C35.8398 87.7402 35.4053 89.2295 35.4053 91.2217ZM50.376 104.962V83.4434H52.7783V85.4648C53.3447 84.6738 53.9844 84.083 54.6973 83.6924C55.4102 83.292 56.2744 83.0918 57.29 83.0918C58.6182 83.0918 59.79 83.4336 60.8057 84.1172C61.8213 84.8008 62.5879 85.7676 63.1055 87.0176C63.623 88.2578 63.8818 89.6201 63.8818 91.1045C63.8818 92.6963 63.5938 94.1318 63.0176 95.4111C62.4512 96.6807 61.6211 97.6572 60.5273 98.3408C59.4434 99.0146 58.3008 99.3516 57.0996 99.3516C56.2207 99.3516 55.4297 99.166 54.7266 98.7949C54.0332 98.4238 53.4619 97.9551 53.0127 97.3887V104.962H50.376ZM52.7637 91.3096C52.7637 93.3115 53.1689 94.791 53.9795 95.748C54.79 96.7051 55.7715 97.1836 56.9238 97.1836C58.0957 97.1836 59.0967 96.6904 59.9268 95.7041C60.7666 94.708 61.1865 93.1699 61.1865 91.0898C61.1865 89.1074 60.7764 87.623 59.9561 86.6367C59.1455 85.6504 58.1738 85.1572 57.041 85.1572C55.918 85.1572 54.9219 85.6846 54.0527 86.7393C53.1934 87.7842 52.7637 89.3076 52.7637 91.3096ZM74.4434 91.2217C74.4434 88.3408 75.2441 86.207 76.8457 84.8203C78.1836 83.668 79.8145 83.0918 81.7383 83.0918C83.877 83.0918 85.625 83.7949 86.9824 85.2012C88.3398 86.5977 89.0186 88.5312 89.0186 91.002C89.0186 93.0039 88.7158 94.5811 88.1104 95.7334C87.5146 96.876 86.6406 97.7646 85.4883 98.3994C84.3457 99.0342 83.0957 99.3516 81.7383 99.3516C79.5605 99.3516 77.7979 98.6533 76.4502 97.2568C75.1123 95.8604 74.4434 93.8486 74.4434 91.2217ZM77.1533 91.2217C77.1533 93.2139 77.5879 94.708 78.457 95.7041C79.3262 96.6904 80.4199 97.1836 81.7383 97.1836C83.0469 97.1836 84.1357 96.6855 85.0049 95.6895C85.874 94.6934 86.3086 93.1748 86.3086 91.1338C86.3086 89.21 85.8691 87.7549 84.9902 86.7686C84.1211 85.7725 83.0371 85.2744 81.7383 85.2744C80.4199 85.2744 79.3262 85.7676 78.457 86.7539C77.5879 87.7402 77.1533 89.2295 77.1533 91.2217ZM92.124 99V83.4434H94.4971V85.6553C95.6396 83.9463 97.29 83.0918 99.4482 83.0918C100.386 83.0918 101.245 83.2627 102.026 83.6045C102.817 83.9365 103.408 84.376 103.799 84.9229C104.189 85.4697 104.463 86.1191 104.619 86.8711C104.717 87.3594 104.766 88.2139 104.766 89.4346V99H102.129V89.5371C102.129 88.4629 102.026 87.6621 101.821 87.1348C101.616 86.5977 101.25 86.1729 100.723 85.8604C100.205 85.5381 99.5947 85.377 98.8916 85.377C97.7686 85.377 96.7969 85.7334 95.9766 86.4463C95.166 87.1592 94.7607 88.5117 94.7607 90.5039V99H92.124ZM108.765 99V77.5254H111.401V99H108.765ZM115.518 80.5576V77.5254H118.154V80.5576H115.518ZM115.518 99V83.4434H118.154V99H115.518ZM122.183 99V83.4434H124.556V85.6553C125.698 83.9463 127.349 83.0918 129.507 83.0918C130.444 83.0918 131.304 83.2627 132.085 83.6045C132.876 83.9365 133.467 84.376 133.857 84.9229C134.248 85.4697 134.521 86.1191 134.678 86.8711C134.775 87.3594 134.824 88.2139 134.824 89.4346V99H132.188V89.5371C132.188 88.4629 132.085 87.6621 131.88 87.1348C131.675 86.5977 131.309 86.1729 130.781 85.8604C130.264 85.5381 129.653 85.377 128.95 85.377C127.827 85.377 126.855 85.7334 126.035 86.4463C125.225 87.1592 124.819 88.5117 124.819 90.5039V99H122.183ZM149.531 93.9902L152.256 94.3271C151.826 95.9189 151.03 97.1543 149.868 98.0332C148.706 98.9121 147.222 99.3516 145.415 99.3516C143.14 99.3516 141.333 98.6533 139.995 97.2568C138.667 95.8506 138.003 93.8828 138.003 91.3535C138.003 88.7363 138.677 86.7051 140.024 85.2598C141.372 83.8145 143.12 83.0918 145.269 83.0918C147.349 83.0918 149.048 83.7998 150.366 85.2158C151.685 86.6318 152.344 88.624 152.344 91.1924C152.344 91.3486 152.339 91.583 152.329 91.8955H140.728C140.825 93.6045 141.309 94.9131 142.178 95.8213C143.047 96.7295 144.131 97.1836 145.43 97.1836C146.396 97.1836 147.222 96.9297 147.905 96.4219C148.589 95.9141 149.131 95.1035 149.531 93.9902ZM140.874 89.7275H149.561C149.443 88.4189 149.111 87.4375 148.564 86.7832C147.725 85.7676 146.636 85.2598 145.298 85.2598C144.087 85.2598 143.066 85.665 142.236 86.4756C141.416 87.2861 140.962 88.3701 140.874 89.7275Z" fill="#364F6B"/>
</svg>